<?xml version="1.0" encoding="UTF-8" standalone="no"?>
<!DOCTYPE svg PUBLIC "-//W3C//DTD SVG 1.1//EN"
 "http://www.w3.org/Graphics/SVG/1.1/DTD/svg11.dtd">
<!-- Generated by graphviz version 2.38.0 (20140413.2041)
 -->
<!-- Title: G Pages: 1 -->
<svg width="341pt" height="834pt"
 viewBox="0.00 0.00 341.25 834.00" xmlns="http://www.w3.org/2000/svg" xmlns:xlink="http://www.w3.org/1999/xlink">
<g id="graph0" class="graph" transform="scale(1 1) rotate(0) translate(4 830)">
<title>G</title>
<polygon fill="white" stroke="none" points="-4,4 -4,-830 337.246,-830 337.246,4 -4,4"/>
<g id="clust1" class="cluster"><title>cluster_Global</title>
<path fill="none" stroke="gray" d="M20,-98C20,-98 313.246,-98 313.246,-98 319.246,-98 325.246,-104 325.246,-110 325.246,-110 325.246,-806 325.246,-806 325.246,-812 319.246,-818 313.246,-818 313.246,-818 20,-818 20,-818 14,-818 8,-812 8,-806 8,-806 8,-110 8,-110 8,-104 14,-98 20,-98"/>
<text text-anchor="middle" x="166.623" y="-805.2" font-family="Times,serif" font-size="11.00" fill="gray">Global</text>
</g>
<!-- \\Condition -->
<g id="node1" class="node"><title>\\Condition</title>
<polygon fill="none" stroke="black" points="283.246,-790 206.246,-790 206.246,-754 283.246,-754 283.246,-790"/>
<text text-anchor="middle" x="244.746" y="-769.2" font-family="Courier,monospace" font-size="11.00">Condition</text>
</g>
<!-- \\Period -->
<g id="node2" class="node"><title>\\Period</title>
<polygon fill="none" stroke="black" points="273.246,-736 216.246,-736 216.246,-700 273.246,-700 273.246,-736"/>
<text text-anchor="middle" x="244.746" y="-715.2" font-family="Courier,monospace" font-size="11.00">Period</text>
</g>
<!-- \\TrainingRestriction -->
<g id="node3" class="node"><title>\\TrainingRestriction</title>
<polygon fill="none" stroke="black" points="317.246,-682 172.246,-682 172.246,-646 317.246,-646 317.246,-682"/>
<text text-anchor="middle" x="244.746" y="-661.2" font-family="Courier,monospace" font-size="11.00">TrainingRestriction</text>
</g>
<!-- \\Schedule -->
<g id="node4" class="node"><title>\\Schedule</title>
<polygon fill="none" stroke="black" points="280.246,-304 209.246,-304 209.246,-268 280.246,-268 280.246,-304"/>
<text text-anchor="middle" x="244.746" y="-283.2" font-family="Courier,monospace" font-size="11.00">Schedule</text>
</g>
<!-- \\Iterator -->
<g id="node15" class="node"><title>\\Iterator</title>
<ellipse fill="none" stroke="black" cx="51.5" cy="-72" rx="38.9931" ry="18"/>
<text text-anchor="middle" x="51.5" y="-68.3" font-family="Times,serif" font-size="14.00" fill="gray">\Iterator</text>
</g>
<!-- \\Schedule&#45;&gt;\\Iterator -->
<g id="edge1" class="edge"><title>\\Schedule&#45;&gt;\\Iterator</title>
<path fill="none" stroke="black" stroke-dasharray="1,5" d="M209.002,-278.921C196.185,-274.867 182.342,-268.6 172.246,-259 114.262,-203.867 156.244,-151.148 100.246,-94 97.9461,-91.6532 95.3491,-89.5314 92.5838,-87.6177"/>
<polygon fill="none" stroke="black" points="94.3002,-84.5665 83.912,-82.484 90.7342,-90.5901 94.3002,-84.5665"/>
</g>
<!-- \\Room -->
<g id="node5" class="node"><title>\\Room</title>
<polygon fill="none" stroke="black" points="271.746,-466 217.746,-466 217.746,-430 271.746,-430 271.746,-466"/>
<text text-anchor="middle" x="244.746" y="-445.2" font-family="Courier,monospace" font-size="11.00">Room</text>
</g>
<!-- \\Room&#45;&gt;\\Iterator -->
<g id="edge2" class="edge"><title>\\Room&#45;&gt;\\Iterator</title>
<path fill="none" stroke="black" stroke-dasharray="1,5" d="M217.737,-444.456C202.357,-441.01 183.705,-434.246 172.246,-421 74.8796,-308.458 193.573,-209.913 100.246,-94 98.3139,-91.6007 96.0616,-89.4517 93.6069,-87.5286"/>
<polygon fill="none" stroke="black" points="94.9677,-84.2457 84.6529,-81.8256 91.2071,-90.1498 94.9677,-84.2457"/>
</g>
<!-- \\Logger -->
<g id="node6" class="node"><title>\\Logger</title>
<polygon fill="none" stroke="black" points="273.246,-520 216.246,-520 216.246,-484 273.246,-484 273.246,-520"/>
<text text-anchor="middle" x="244.746" y="-499.2" font-family="Courier,monospace" font-size="11.00">Logger</text>
</g>
<!-- \\DisabledTraining -->
<g id="node7" class="node"><title>\\DisabledTraining</title>
<polygon fill="none" stroke="black" points="307.246,-574 182.246,-574 182.246,-538 307.246,-538 307.246,-574"/>
<text text-anchor="middle" x="244.746" y="-553.2" font-family="Courier,monospace" font-size="11.00">DisabledTraining</text>
</g>
<!-- \\Training -->
<g id="node14" class="node"><title>\\Training</title>
<polygon fill="none" stroke="black" points="87,-601 16,-601 16,-565 87,-565 87,-601"/>
<text text-anchor="middle" x="51.5" y="-580.2" font-family="Courier,monospace" font-size="11.00">Training</text>
</g>
<!-- \\DisabledTraining&#45;&gt;\\Training -->
<g id="edge3" class="edge"><title>\\DisabledTraining&#45;&gt;\\Training</title>
<path fill="none" stroke="black" d="M182.182,-564.692C154.542,-568.594 122.535,-573.112 97.2351,-576.684"/>
<polygon fill="none" stroke="black" points="96.6011,-573.239 87.1886,-578.103 97.5797,-580.17 96.6011,-573.239"/>
</g>
<!-- \\WorkingHours -->
<g id="node8" class="node"><title>\\WorkingHours</title>
<polygon fill="none" stroke="black" points="293.746,-412 195.746,-412 195.746,-376 293.746,-376 293.746,-412"/>
<text text-anchor="middle" x="244.746" y="-391.2" font-family="Courier,monospace" font-size="11.00">WorkingHours</text>
</g>
<!-- \\TrainingCube -->
<g id="node9" class="node"><title>\\TrainingCube</title>
<polygon fill="none" stroke="black" points="293.746,-358 195.746,-358 195.746,-322 293.746,-322 293.746,-358"/>
<text text-anchor="middle" x="244.746" y="-337.2" font-family="Courier,monospace" font-size="11.00">TrainingCube</text>
</g>
<!-- \\TrainingCube&#45;&gt;\\Iterator -->
<g id="edge4" class="edge"><title>\\TrainingCube&#45;&gt;\\Iterator</title>
<path fill="none" stroke="black" stroke-dasharray="1,5" d="M195.533,-328.577C186.926,-324.767 178.669,-319.709 172.246,-313 101.387,-238.995 168.444,-170.464 100.246,-94 98.0587,-91.548 95.5426,-89.3505 92.8332,-87.3845"/>
<polygon fill="none" stroke="black" points="94.6211,-84.3754 84.261,-82.1578 90.977,-90.3521 94.6211,-84.3754"/>
</g>
<!-- \\StartingTraining -->
<g id="node10" class="node"><title>\\StartingTraining</title>
<polygon fill="none" stroke="black" points="307.246,-628 182.246,-628 182.246,-592 307.246,-592 307.246,-628"/>
<text text-anchor="middle" x="244.746" y="-607.2" font-family="Courier,monospace" font-size="11.00">StartingTraining</text>
</g>
<!-- \\StartingTraining&#45;&gt;\\Training -->
<g id="edge5" class="edge"><title>\\StartingTraining&#45;&gt;\\Training</title>
<path fill="none" stroke="black" d="M182.182,-601.308C154.542,-597.406 122.535,-592.888 97.2351,-589.316"/>
<polygon fill="none" stroke="black" points="97.5797,-585.83 87.1886,-587.897 96.6011,-592.761 97.5797,-585.83"/>
</g>
<!-- \\Date -->
<g id="node11" class="node"><title>\\Date</title>
<polygon fill="none" stroke="black" points="271.746,-250 217.746,-250 217.746,-214 271.746,-214 271.746,-250"/>
<text text-anchor="middle" x="244.746" y="-229.2" font-family="Courier,monospace" font-size="11.00">Date</text>
</g>
<!-- \\DateTime -->
<g id="node16" class="node"><title>\\DateTime</title>
<ellipse fill="none" stroke="black" cx="51.5" cy="-18" rx="48.9926" ry="18"/>
<text text-anchor="middle" x="51.5" y="-14.3" font-family="Times,serif" font-size="14.00" fill="gray">\DateTime</text>
</g>
<!-- \\Date&#45;&gt;\\DateTime -->
<g id="edge6" class="edge"><title>\\Date&#45;&gt;\\DateTime</title>
<path fill="none" stroke="black" d="M217.623,-227.314C202.775,-223.488 184.717,-216.724 172.246,-205 115.429,-151.59 152.797,-102.612 100.246,-45 97.7228,-42.2342 94.8488,-39.6811 91.7911,-37.3406"/>
<polygon fill="none" stroke="black" points="93.6243,-34.355 83.3828,-31.6419 89.697,-40.1496 93.6243,-34.355"/>
</g>
<!-- \\ScheduleCache -->
<g id="node12" class="node"><title>\\ScheduleCache</title>
<polygon fill="none" stroke="black" points="296.746,-196 192.746,-196 192.746,-160 296.746,-160 296.746,-196"/>
<text text-anchor="middle" x="244.746" y="-175.2" font-family="Courier,monospace" font-size="11.00">ScheduleCache</text>
</g>
<!-- \\DataGetter -->
<g id="node13" class="node"><title>\\DataGetter</title>
<polygon fill="none" stroke="black" points="286.746,-142 202.746,-142 202.746,-106 286.746,-106 286.746,-142"/>
<text text-anchor="middle" x="244.746" y="-121.2" font-family="Courier,monospace" font-size="11.00">DataGetter</text>
</g>
</g>
</svg>
